<svg width="1252" height="323" viewBox="0 0 1252 323" fill="none" xmlns="http://www.w3.org/2000/svg">
<ellipse cx="782" cy="162.5" rx="49" ry="49.5" fill="#37D86D"/>
<ellipse cx="517" cy="112.5" rx="18" ry="17.5" fill="#37D86D"/>
<ellipse cx="1234" cy="211.5" rx="18" ry="17.5" fill="#37D86D"/>
<mask id="path-4-inside-1_1_108" fill="white">
<path d="M163 0C253.022 0 326 72.306 326 161.5C326 250.694 253.022 323 163 323C72.9776 323 0 250.694 0 161.5C0 72.306 72.9776 0 163 0Z"/>
</mask>
<path d="M163 0V15C244.869 15 311 80.7207 311 161.5H326H341C341 63.8913 261.176 -15 163 -15V0ZM326 161.5H311C311 242.279 244.869 308 163 308V323V338C261.176 338 341 259.109 341 161.5H326ZM163 323V308C81.1308 308 15 242.279 15 161.5H0H-15C-15 259.109 64.8244 338 163 338V323ZM0 161.5H15C15 80.7207 81.1308 15 163 15V0V-15C64.8244 -15 -15 63.8913 -15 161.5H0Z" fill="#37D86D" mask="url(#path-4-inside-1_1_108)"/>
<path d="M102.07 299.059C106.847 296.022 113.823 288.196 116.244 277.949C118.288 269.298 115.603 261.996 113.43 258.514C107.87 249.605 99.0211 245.859 98.7986 241.723C98.3426 233.248 108.588 226.241 115.131 222.073C121.492 218.022 127.355 215.745 130.188 213.573C132.889 211.502 132.171 205.302 130.875 198.771C128.528 186.939 114.765 188.262 106.461 186.083C102.838 185.132 101.639 180.855 100.984 176.726C100.134 171.363 101.625 166.459 103.582 162.762C105.813 158.546 109.465 155.112 113.168 152.285C116.389 149.827 116.466 140.337 115.603 129.219C115.27 124.937 113.011 123.716 111.258 122.401C101.35 114.97 82.9107 120.182 75.7062 122.59C71.5339 123.985 66.3292 124.998 60.6689 123.919C54.9837 122.834 52.7839 116.727 51.4752 112.814C48.5654 104.114 52.3389 95.814 53.4252 88.3804C53.6808 86.6313 53.6476 84.8993 52.7839 83.3615C51.9201 81.8238 50.1926 80.5281 48.4389 79.6447C46.6852 78.7613 44.9578 78.3295 43.1779 77.8845" stroke="#37D86D" stroke-width="19" stroke-linecap="round"/>
<path d="M109.923 26.8443C110.355 29.8806 112.959 37.7067 116.669 44.9243C121.165 53.6695 140.416 48.2289 148.936 49.7339C157.461 51.2399 156.592 63.0174 156.389 70.8763C156.296 74.4966 153.111 77.4264 153.542 81.562C153.753 83.5739 154.838 85.2657 156.147 86.5875C161.64 92.1358 172.689 90.108 181.87 88.1449C186.377 87.1812 190.174 85.305 193.439 85.7303C197.543 86.2649 197.607 100.473 196.743 115.517C196.09 126.906 183.264 134.107 177.119 142.202C174.499 145.653 174.927 150.283 175.136 153.764C175.389 157.967 181.013 159.889 185.789 161.198C192.909 163.148 199.335 160.779 202.816 159.038C210.182 155.355 217.631 141.672 222.676 128.526C225.392 121.449 241.135 120.654 258.41 120.843C267.206 120.94 266.08 134.997 282.17 141.338C294.845 143.321 305.773 143.753 309.909 144.623C311.885 145.061 313.612 145.493 315.392 145.938" stroke="#37D86D" stroke-width="19" stroke-linecap="round"/>
<path d="M162.558 310.088C162.558 306.88 161.848 299.711 162.015 292.354C162.165 285.711 171.148 282.122 175.82 276.212C177.543 274.033 176.552 269.269 175.841 266.541C173.864 258.946 166.885 251.659 166.676 241.944C166.485 233.121 182.257 232.95 197.128 231.874C200.295 231.645 201.288 229.742 202.015 228.122C205.369 220.643 204.173 212.509 205.96 209.462C209.34 203.7 218.146 204.597 224.959 203.703C235.69 202.296 239.33 209.592 248.097 214.807C251.808 217.014 257.253 216.438 262.807 215.905C269.724 215.241 271.968 206.061 278.964 201.739C283.076 200.657 287.404 199.936 292.231 199.398C294.928 199.215 298.125 199.215 303.572 202.444" stroke="#37D86D" stroke-width="19" stroke-linecap="round"/>
</svg>
