<?xml version="1.0" encoding="UTF-8" standalone="no"?>
<!-- Created with Inkscape (http://www.inkscape.org/) -->

<svg
   version="1.1"
   id="svg1"
   width="1536"
   height="1024"
   viewBox="0 0 1536 1024"
   sodipodi:docname="Life Quest.svg"
   inkscape:version="1.4.2 (f4327f4, 2025-05-13)"
   xmlns:inkscape="http://www.inkscape.org/namespaces/inkscape"
   xmlns:sodipodi="http://sodipodi.sourceforge.net/DTD/sodipodi-0.dtd"
   xmlns="http://www.w3.org/2000/svg"
   xmlns:svg="http://www.w3.org/2000/svg">
  <defs
     id="defs1" />
  <sodipodi:namedview
     id="namedview1"
     pagecolor="#ffffff"
     bordercolor="#000000"
     borderopacity="0.25"
     inkscape:showpageshadow="2"
     inkscape:pageopacity="0.0"
     inkscape:pagecheckerboard="0"
     inkscape:deskcolor="#d1d1d1"
     showgrid="false"
     inkscape:zoom="0.49442232"
     inkscape:cx="1502.7639"
     inkscape:cy="57.643029"
     inkscape:window-width="1920"
     inkscape:window-height="1051"
     inkscape:window-x="-9"
     inkscape:window-y="-9"
     inkscape:window-maximized="1"
     inkscape:current-layer="g1" />
  <g
     inkscape:groupmode="layer"
     inkscape:label="Image"
     id="g1">
    <path
       style="fill:#000000"
       d="m 1893.2628,-148.19326 c -2.8207,-2.82063 -1.0827,-4.41041 5.5826,-5.10663 9.5112,-0.99349 18.1,-0.29255 18.4093,1.5024 0.5895,3.42106 -1.3595,4.19608 -11.9059,4.73434 -8.855,0.45193 -10.6741,0.28184 -12.086,-1.13011 z m -30.0801,-2.04907 c -8.8361,-1.36 -11.7086,-3.61586 -8.2545,-6.48251 1.0726,-0.89018 3.5389,-0.90044 10.25,-0.0426 10.6804,1.36515 13.3375,2.32967 13.3375,4.84157 0,3.39712 -2.4511,3.66626 -15.333,1.68359 z m 68.3927,0.0168 c -2.6012,-3.13423 0.4667,-4.27793 13.1752,-4.91174 10.7521,-0.53624 11.8181,-0.42968 12.729,1.27226 1.6277,3.04134 -0.6353,3.84323 -12.99,4.60301 -10.1047,0.6214 -11.6974,0.50257 -12.9142,-0.96353 z m -100.7582,-8.65257 c -6.1558,-2.39287 -11.569,-7.05872 -10.729,-9.24777 1.0853,-2.82827 3.6516,-2.73627 8.3841,0.30055 2.5807,1.656 6.4587,3.6225 8.6178,4.37 3.0991,1.07295 3.9256,1.86424 3.9256,3.75846 0,3.20403 -3.3668,3.47433 -10.1985,0.81876 z m -25.8313,-19.66102 c -4.3876,-4.78935 -6.167,-8.93011 -4.7815,-11.12661 1.644,-2.60626 4.6364,-1.94569 6.1982,1.36824 0.7777,1.65 2.6963,4.47816 4.2635,6.2848 3.1915,3.67887 3.3624,4.30235 1.6496,6.0152 -1.99,1.98999 -3.7315,1.38613 -7.3298,-2.54163 z m 71.0577,-18.19653 c -1.7286,-0.65197 -1.6051,-0.82434 1,-1.39631 5.1674,-1.13449 81.3354,-1.78101 77.9721,-0.66184 -1.65,0.54906 -16.275,1.23151 -32.5,1.51654 -16.225,0.28504 -32.875,0.69086 -37,0.90182 -4.125,0.21097 -8.3874,0.0489 -9.4721,-0.36021 z m -74.1615,-3.5495 c -0.6484,-1.68947 3.385,-9.07236 6.4927,-11.88484 2.2704,-2.05463 5.1409,-1.57639 5.1409,0.8565 0,0.85072 -1.6387,4.01485 -3.6416,7.03138 -3.6485,5.4951 -6.8104,7.07638 -7.992,3.99696 z m 60.3169,-14.59561 c 1.4066,-1.4066 95.3167,-2.56545 95.3167,-1.17621 0,1.36133 -25.1853,2.25948 -63.359,2.25948 -23.7206,0 -32.7354,-0.30558 -31.9577,-1.08327 z m -43.676,-3.40795 c -1.0214,-1.23067 -0.7119,-1.97323 1.771,-4.25 4.0423,-3.70656 13.8193,-8.62715 15.7045,-7.90375 3.1677,1.21557 1.6475,4.54365 -3.2328,7.07715 -2.6125,1.35623 -6.1,3.38584 -7.75,4.51025 -3.5808,2.44019 -4.846,2.55055 -6.4927,0.56635 z m 54.8052,-12.19189 c 0.7219,-0.28887 1.5844,-0.25335 1.9167,0.0789 0.3323,0.33229 -0.2584,0.56864 -1.3125,0.52522 -1.165,-0.048 -1.4019,-0.28494 -0.6042,-0.60416 z m 10.2743,-0.36217 c 6.3149,-1.30288 46.5764,-2.56383 62.4132,-1.95472 21.7431,0.83627 7.2853,1.94306 -32,2.44969 -23.4412,0.30231 -33.4852,0.13884 -30.4132,-0.49497 z m -37.9352,-0.83986 c -2.9804,-1.88873 -0.5914,-4.44602 7.297,-7.81113 8.6672,-3.69737 12.0514,-3.93794 12.0514,-0.8567 0,1.48341 -2.024,2.83735 -8.5,5.68604 -9.7287,4.2795 -9.0814,4.10158 -10.8484,2.98179 z m 28.0952,-12.26806 c -1.3561,-1.35612 0.1094,-4.84409 2.0384,-4.8514 0.6681,-0.003 4.7655,-1.38574 9.1053,-3.07379 7.2176,-2.80744 8.0263,-2.93337 9.483,-1.47664 2.5504,2.55032 0.4402,4.35331 -8.8735,7.58182 -9.6116,3.33177 -10.157,3.41623 -11.7532,1.82001 z m -100.8454,-10.80107 c 1.5958,-0.52456 13.7458,-1.18428 27,-1.46605 15.9283,-0.33862 22.7424,-0.1973 20.0986,0.41682 -5.5424,1.28739 -50.8968,2.29777 -47.0986,1.04923 z m 131.8767,-1.16759 c -2.0644,-2.06439 -0.084,-3.95547 8.8297,-8.43227 9.7854,-4.91455 11.3655,-5.26069 12.3464,-2.70463 0.8799,2.29302 -2.0388,4.63505 -11.0889,8.89803 -7.9048,3.72354 -8.4758,3.85026 -10.0872,2.23887 z m -117.6731,-11.84958 c 1.3027,-1.34226 29.5007,-3.00795 49.395,-2.91782 19.0226,0.0862 12.4423,1.57642 -10.2638,2.32447 -10.0299,0.33043 -23.1862,0.85531 -29.2362,1.1664 -8.2159,0.42246 -10.7203,0.27742 -9.895,-0.57305 z m 145.3567,-7.57474 c -1.0674,-1.28607 -0.9159,-2.00104 0.9004,-4.25 11.0982,-13.74213 13.2248,-18.21497 11.1967,-23.54933 -0.5421,-1.42577 -3.4682,-5.2927 -6.5024,-8.59318 -5.4567,-5.93547 -6.1465,-8.23714 -2.8482,-9.50284 2.2581,-0.86652 7.3313,3.40054 11.8591,9.97471 3.5426,5.14369 3.9327,6.32664 3.9327,11.92518 0,5.52025 -0.4227,6.85173 -3.7813,11.91013 -4.7374,7.13507 -10.5577,13.63151 -12.2126,13.63151 -0.6937,0 -1.8387,-0.69578 -2.5444,-1.54618 z m -172.9617,-3.45382 c 0,-0.55 0.7016,-1 1.559,-1 0.8575,0 1.2809,0.45 0.941,1 -0.3399,0.55 -1.0415,1 -1.559,1 -0.5176,0 -0.941,-0.45 -0.941,-1 z m 13.5,-1 c 0.3399,-0.55 1.743,-1 3.118,-1 1.4121,0 2.2311,0.43519 1.882,1 -0.3399,0.55 -1.743,1 -3.118,1 -1.4121,0 -2.2311,-0.43519 -1.882,-1 z m 15.5,-0.92148 c 2.475,-0.47273 15.075,-1.36888 28,-1.99143 41.6919,-2.00815 47.595,-2.16842 45.5,-1.23531 -2.1344,0.95068 -36.8935,2.99423 -62.5,3.67449 -10.353,0.27504 -14.0057,0.12636 -11,-0.44775 z m -47,-7.78547 c 0,-0.47638 10.6875,-1.67709 23.75,-2.66825 13.0625,-0.99117 30.5,-2.41886 38.75,-3.17266 16.816,-1.53648 64.3324,-3.08257 63.3923,-2.06266 -0.3342,0.36259 -8.4342,1.09627 -18,1.63039 -47.6114,2.65847 -86.9527,5.19745 -101.6423,6.55971 -3.4375,0.31879 -6.25,0.18984 -6.25,-0.28653 z m -33.9043,-6.72205 c 0.4666,-0.46668 78.9951,-7.75198 108.9043,-10.10336 19.9232,-1.56631 41.2658,-1.87033 33,-0.47009 -2.475,0.41927 -9.225,1.04091 -15,1.38142 -29.0237,1.71131 -53.1092,3.72885 -102.5,8.58602 -10.2277,1.0058 -25.1753,1.37698 -24.4043,0.60601 z m 4.9043,-6.52569 c 0,-1.0467 -0.072,-1.0333 21.5,-3.99132 8.25,-1.13126 16.6029,-2.05619 18.5619,-2.05541 2.7987,10e-4 4.037,-0.64113 5.779,-2.99726 1.2194,-1.64928 3.6748,-3.60777 5.4565,-4.35222 1.7817,-0.74444 5.396,-3.22004 8.0318,-5.50132 5.6736,-4.91045 6.5523,-5.19446 3.7066,-1.19807 -2.6043,3.65743 -9.9787,10.05029 -11.5934,10.05029 -0.6586,0 -1.7577,0.675 -2.4424,1.5 -1.0889,1.31201 -0.2453,1.5 6.7309,1.5 11.6725,0 20.2691,-1.06436 20.2691,-2.50957 0,-0.67356 1.7484,-2.38171 3.8854,-3.79588 2.1369,-1.41418 6.4719,-4.67796 9.6331,-7.25286 3.1613,-2.57489 5.3734,-4.07581 4.9158,-3.33537 -1.7889,2.89451 19.7648,-15.59247 26.9623,-23.12607 7.2471,-7.58544 9.6034,-9.28623 9.6034,-6.93186 0,3.17994 -27.0764,26.84974 -43.4137,37.95161 -5.2609,3.575 -9.57,6.8375 -9.5758,7.25 -0.01,0.4125 1.227,0.75689 2.7395,0.76531 2.1429,0.0119 2.4189,0.22931 1.25,0.98469 -0.825,0.53316 -7.125,0.9783 -14,0.98921 -12.3472,0.0196 -38.4885,2.64453 -55,5.52273 -9.9069,1.72692 -13,1.85382 -13,0.53337 z m -6,-1.47291 c 0,-1.6876 9.2215,-7.35755 17,-10.45267 3.9383,-1.56708 6.2969,-3.3112 8.3065,-6.14252 4.9193,-6.93067 24.1399,-27.1529 35.1457,-36.97721 8.2623,-7.37535 11.4221,-10.95371 14.1283,-16 5.9096,-11.01989 26.1302,-39.25458 30.6806,-42.84038 2.3314,-1.83722 7.8903,-5.10868 12.3531,-7.26992 l 8.1141,-3.92953 6.6972,-16.73008 c 3.6834,-9.20155 7.7938,-18.32818 9.1341,-20.28141 1.3404,-1.95322 6.6776,-7.04044 11.8606,-11.30493 9.4098,-7.74223 20.6944,-20.58478 29.0937,-33.1103 4.1949,-6.25573 8.7116,-15.01659 15.262,-29.60319 2.1289,-4.74065 6.0935,-10.11818 14.2399,-19.31504 l 11.2896,-12.7453 -0.7112,-37.18496 c -0.3912,-20.45173 -1.1495,-39.15415 -1.6852,-41.56094 -0.7766,-3.48918 -0.6587,-4.85707 0.5816,-6.75 1.8969,-2.89507 2.919,-2.96446 5.5094,-0.37402 1.535,1.535 2.0009,3.33688 2.0039,7.75 v 5.75 l 22.7461,0.19957 c 12.5104,0.10977 26.0086,0.22227 29.9961,0.25 6.0319,0.042 7.25,0.32593 7.25,1.69019 0,1.86824 -0.4898,2.28702 -11.718,10.01865 l -8.2181,5.65885 9.7181,6.59137 c 6.8542,4.64897 9.718,7.18075 9.718,8.59137 0,1.95454 -0.6667,2 -29.3291,2 h -29.3291 l 0.3291,17.37942 c 0.3217,16.99199 0.3818,17.41438 2.693,18.94764 4.9364,3.27467 15.7685,12.58049 18.9386,16.26997 1.8164,2.11396 6.487,9.36943 10.3792,16.12327 8.7123,15.11806 12.8,20.80515 17.8008,24.76584 2.1287,1.68593 6.2659,6.16702 9.1939,9.95797 6.9343,8.97807 25.7038,30.05589 26.7644,30.05589 0.453,0 5.2129,-3.6068 10.5776,-8.01512 5.3646,-4.40832 10.7692,-8.26994 12.01,-8.58138 4.6582,-1.16911 9.484,3.24421 35.2554,32.24156 7.1135,8.00402 7.3642,8.17528 14.4775,9.88993 13.0188,3.13815 13.6538,3.57514 24.7624,17.04178 14.795,17.93563 27.8273,29.98342 52.3625,48.40688 19.7843,14.85606 23.4055,18.01635 20.6442,18.01635 -1.8892,0 -16.241,-8.94934 -31.5735,-19.68812 -16.9465,-11.8693 -44.0382,-37.0071 -51.3444,-47.64149 -3.6429,-5.30226 -6.9683,-7.1255 -19.7921,-10.8516 l -7.528,-2.18737 -11.5793,-13.06571 c -16.1155,-18.18435 -22.3991,-24.56571 -24.1892,-24.56571 -0.8463,0 -4.2586,2.37208 -7.5828,5.27129 -3.3243,2.8992 -7.3433,6.2932 -8.9312,7.54222 l -2.887,2.27094 3.1808,2.96547 c 1.7495,1.63101 2.7343,2.422 2.1885,1.75777 -1.5968,-1.94344 -1.1436,-6.36076 0.8365,-8.1527 2.4898,-2.25329 2.9708,-2.10084 3.455,1.09501 0.3351,2.21205 0.4459,2.01644 0.5664,-1 0.159,-3.98002 2.1173,-5.31734 2.1965,-1.5 0.026,1.2375 0.6483,5.175 1.3835,8.75 l 1.3368,6.5 -0.5354,-10.75 c -0.3863,-7.75531 -0.2146,-10.75 0.6165,-10.75 0.6454,0 1.199,1.64882 1.259,3.75 0.5626,19.70755 0.8227,21.5473 3.6315,25.68348 1.5188,2.23659 3.1143,4.93489 3.5457,5.99622 0.6874,1.69142 -0.8299,0.13222 -9.4847,-9.74668 l -1.9125,-2.18302 1.2119,2.5 c 0.6666,1.375 2.7712,4.4125 4.677,6.75 1.9057,2.3375 2.9608,4.25 2.3445,4.25 -2.0431,0 -1.1718,2.0781 3.9421,9.4025 4.124,5.90665 4.9382,7.74645 4.3916,9.92418 -0.604,2.40634 -2.4542,3.82946 -2.4542,1.88766 0,-0.43211 -4.3669,-5.04461 -9.7042,-10.25 -30.4752,-29.72198 -39.981,-39.61245 -39.0073,-40.58609 0.2126,-0.21265 8.3486,7.49025 18.0798,17.11755 9.7313,9.62731 18.137,17.5042 18.6794,17.5042 0.5423,0 -0.1134,-2.1375 -1.4571,-4.75 -2.4466,-4.7569 -9.0955,-10.96369 -11.2223,-10.47611 -0.6224,0.1427 -6.1864,-5.11417 -12.3644,-11.68194 -6.9865,-7.42738 -11.7564,-11.7404 -12.6182,-11.40968 -0.7621,0.29244 -1.3857,0.0681 -1.3857,-0.49856 0,-0.56664 -1.2065,-2.4641 -2.6811,-4.21658 -3.6215,-4.30396 -9.3797,-13.96713 -8.3228,-13.96713 0.4675,0 2.1226,1.2375 3.6779,2.75 4.7127,4.58302 7.2267,6.16505 4.326,2.72231 -1.375,-1.63194 -2.9965,-3.29128 -3.6034,-3.68742 -0.6069,-0.39614 -2.9705,-3.14027 -5.2524,-6.09807 -3.5667,-4.62307 -16.5318,-16.71826 -13.5697,-12.65921 0.591,0.80981 1.8734,4.19781 2.8497,7.52889 0.9764,3.33107 2.6559,7.15607 3.7321,8.5 1.8514,2.31182 1.846,2.21662 -0.1,-1.76666 -2.3299,-4.76964 -2.4382,-5.28984 -1.1014,-5.28984 1.0748,0 13.0448,17.78187 13.0448,19.37857 0,0.56503 -1.873,-0.7515 -4.1622,-2.92562 -3.5928,-3.41217 -3.8798,-3.54253 -2.0978,-0.95295 1.1355,1.65 3.2335,4.09094 4.6623,5.42431 2.5805,2.40819 3.3203,4.07569 1.8084,4.07569 -0.4342,0 -4.0952,-3.01713 -8.1356,-6.70474 l -7.3462,-6.70474 6.7199,12.70157 c 3.696,6.98587 6.5326,13.26378 6.3036,13.95091 -0.5256,1.57665 -5.0438,-5.51998 -6.6718,-10.47907 -0.6746,-2.05484 -1.6583,-4.00293 -2.186,-4.32909 -1.1145,-0.6888 -13.8946,-25.90992 -13.8946,-27.42056 0,-2.30025 1.974,-0.73435 4.4932,3.56423 1.4757,2.51817 2.8991,4.36256 3.163,4.09863 0.8162,-0.81621 -2.4605,-10.59363 -4.5192,-13.48478 -7.158,-10.05243 -21.137,-34.05197 -21.137,-36.28853 0,-1.84937 -1.4174,-3.95595 -4.7746,-7.0963 -5.782,-5.40838 -10.0584,-8.30791 -10.945,-7.42122 -0.3615,0.36148 -0.9766,5.48493 -1.3669,11.38546 -0.7321,11.06893 0.1302,15.35976 3.6786,18.30468 0.7743,0.64264 1.4242,2.12584 1.4442,3.29599 0.025,1.49208 1.2793,2.72494 4.198,4.12756 5.666,2.72292 8.4552,6.64809 7.2095,10.14584 -0.5191,1.45742 -2.1251,3.52924 -3.5689,4.60403 -2.1352,1.58946 -3.0217,1.74193 -4.75,0.81696 -2.5566,-1.36826 -2.6827,-2.79289 -0.4643,-5.24422 0.9133,-1.00918 1.4758,-1.94927 1.25,-2.0891 -0.2258,-0.13982 -2.2967,-1.71206 -4.602,-3.49387 -4.0717,-3.14718 -6.2973,-4.02398 -6.3194,-2.48964 -0.01,0.4125 -0.6777,3 -1.4928,5.75 l -1.4819,5 1.9705,-2.5 c 1.0838,-1.375 1.9805,-2.8375 1.9928,-3.25 0.012,-0.4125 0.4722,-0.75 1.0222,-0.75 1.9326,0 0.9654,3.04356 -2.5,7.86712 -4.2866,5.96663 -4.3995,6.90954 -0.4942,4.12876 3.4141,-2.43109 5.7771,-2.32531 7.387,0.33067 0.9246,1.52526 0.5666,2.28332 -2.1702,4.59565 -1.8025,1.52301 -4.4056,3.37296 -5.7846,4.111 -2.2395,1.19851 -2.7373,1.11193 -4.6596,-0.81037 -2.0963,-2.09627 -2.1044,-2.20517 -0.3103,-4.18754 1.013,-1.11941 1.3794,-2.03529 0.8142,-2.03529 -0.5652,0 -2.8942,2.025 -5.1755,4.5 -4.057,4.40127 -5.9293,5.7478 -4.5191,3.25 1.4721,-2.60751 -1.3608,0.90903 -6.2435,7.75 -5.4342,7.61373 -13.0034,22.17481 -9.025,17.3617 1.1995,-1.45107 3.915,-5.19183 6.0347,-8.3128 2.1196,-3.12098 4.0653,-5.46306 4.3237,-5.20463 0.7911,0.7911 -2.6709,6.79761 -8.159,14.15573 -2.8715,3.85 -6.6007,9.42698 -8.287,12.39329 -3.0197,5.31177 -18.363,25.30864 -18.9605,24.71115 -1.0029,-1.0029 8.5269,-17.8473 9.6904,-17.12823 0.4242,0.26214 1.6188,-0.51751 2.6548,-1.73256 1.5672,-1.83805 1.5897,-1.98151 0.1337,-0.85397 -2.7595,2.13698 -2.0682,0.45198 2.1262,-5.18259 2.1319,-2.8639 4.4099,-6.33209 5.0621,-7.70709 1.7779,-3.74792 -6.1966,5.39221 -10.68,12.24125 -2.0671,3.15769 -4.1224,5.74519 -4.5673,5.75 -0.445,0.005 -0.5309,-0.44125 -0.191,-0.99125 0.3399,-0.55 0.1917,-1 -0.3293,-1 -0.521,0 -4.1826,4.28555 -8.1368,9.52345 -8.678,11.49522 -12.7687,16.07513 -13.6081,15.23572 -0.7617,-0.76175 3.0245,-5.97677 10.897,-15.00917 3.2357,-3.7125 5.5818,-6.75 5.2134,-6.75 -1.6701,0 -11.8501,9.85985 -14.0425,13.60103 -1.3412,2.28858 -5.0802,6.80208 -8.3089,10.03001 -6.0228,6.02149 -15.0165,19.8706 -13.7358,21.15133 0.6896,0.68953 2.8114,-1.49841 8.9022,-9.17955 1.5682,-1.97763 3.2891,-3.32515 3.8241,-2.99449 0.535,0.33066 1.9519,-0.2933 3.1487,-1.38659 1.1968,-1.09329 3.6579,-2.737 5.469,-3.65271 1.8112,-0.9157 6.1987,-4.12983 9.75,-7.14252 4.7765,-4.05201 6.4537,-5.0155 6.4444,-3.70205 -0.01,0.97655 -2.4239,3.89003 -5.3711,6.47442 -2.9471,2.58438 -6.3306,6.34655 -7.5188,8.36039 l -2.1603,3.66152 2.9353,-1.86039 c 9.6009,-6.08494 15.3974,-9.3604 16.5647,-9.3604 2.0199,0 8.164,-7.27631 11.1579,-13.2141 1.4659,-2.90724 4.7835,-7.9859 7.3725,-11.2859 2.589,-3.3 6.5692,-8.77125 8.8449,-12.15834 2.2756,-3.38708 4.6212,-6.31956 5.2124,-6.51662 0.7286,-0.24286 0.6246,-1.42906 -0.3228,-3.68231 l -1.3977,-3.32403 -2.7857,5.34065 c -1.5321,2.93736 -5.5923,9.39065 -9.0226,14.34065 -3.4304,4.95 -7.0149,10.575 -7.9657,12.5 -1.7068,3.45571 -11.0566,13 -12.7352,13 -0.9585,0 0.7351,-3.62789 1.9433,-4.16285 1.2735,-0.56387 11.6319,-14.92374 15.7521,-21.83715 8.892,-14.92011 17.0193,-27 18.1657,-27 1.7308,0 2.6716,1.76058 4.0075,7.5 1.2475,5.35934 0.508,7.5 -2.5909,7.5 -1.8473,0 -19.7883,25.82065 -22.4632,32.32903 -0.9381,2.28257 -5.5577,7.73494 -11.438,13.5 -7.0005,6.86325 -10.64,11.3075 -12.5362,15.30788 -1.9853,4.1883 -3.3097,5.75882 -5.1537,6.11132 -1.365,0.26094 -2.4818,0.24965 -2.4818,-0.0251 0,-0.27472 1.8,-2.45227 4,-4.83899 2.2,-2.38671 4,-5.27112 4,-6.40979 0,-1.13867 1.2375,-3.22029 2.75,-4.62581 l 2.75,-2.55551 -3.4288,2.01795 c -1.8859,1.10987 -3.5308,2.71272 -3.6554,3.56189 -0.2876,1.95937 -8.2727,11.48017 -10.7327,12.79667 -4.2118,2.25412 -2.6706,-0.6262 3.5853,-6.70022 3.6647,-3.55814 6.4311,-6.46935 6.1477,-6.46935 -1.9537,0 -6.9324,3.75443 -10.9054,8.22367 -4.6394,5.21888 -4.6832,5.24094 -4.0212,2.02633 0.761,-3.69464 0.1054,-3.96608 -3.607,-1.49341 -3.607,2.40251 -6.663,6.21659 -15.4666,19.30292 l -7.5745,11.25955 5.0651,-4.24078 c 2.7858,-2.33243 8.6511,-8.07353 13.0339,-12.75799 4.3828,-4.68447 8.4607,-8.35324 9.062,-8.15282 1.2439,0.41463 -15.3778,19.52631 -19.6798,22.62797 -1.5524,1.11927 -5.9726,5.25148 -9.8226,9.1827 -3.85,3.93121 -8.8584,8.45376 -11.1298,10.0501 -2.2714,1.59635 -8.2971,6.74304 -13.3905,11.4371 -5.0934,4.69409 -9.6704,8.53469 -10.1711,8.53469 -1.8492,0 4.4174,-6.868 13.7457,-15.06506 11.6086,-10.20074 15.6008,-13.93494 14.8976,-13.93494 -0.2914,0 0.4147,-1.0125 1.569,-2.25 1.8578,-1.99156 11.8244,-16.4365 14.4791,-20.98494 0.55,-0.94235 2.5342,-3.8625 4.4094,-6.48921 l 3.4094,-4.77585 -4.1594,3.95295 c -2.2877,2.17412 -4.1594,4.53662 -4.1594,5.25 0,0.71338 -0.6177,1.29705 -1.3726,1.29705 -1.8179,0 -8.0255,6.83673 -14.0737,15.5 -2.6878,3.85 -6.5369,8.8 -8.5534,11 -2.0165,2.2 -5.282,6.25 -7.2565,9 -4.3509,6.0595 -11.7438,13.38956 -11.7438,11.64393 0,-0.69408 -0.498,-0.95416 -1.1068,-0.57795 -0.7819,0.48329 -0.7329,0.91508 0.1673,1.4714 0.9098,0.56227 -0.5167,2.65216 -4.9893,7.30993 -7.2047,7.50295 -20.8122,18.24507 -21.8266,17.23058 -0.3777,-0.37765 -0.2235,-0.99967 0.3427,-1.38226 7.9511,-5.37301 27.7614,-24.12501 24.1575,-22.86709 -0.9653,0.33695 1.2417,-2.18662 4.9045,-5.60795 7.1823,-6.70871 18.5381,-20.24848 21.0396,-25.08586 0.8493,-1.64238 4.3543,-6.39458 7.7889,-10.56044 6.0576,-7.34726 9.5222,-12.82804 9.5222,-15.06354 0,-1.02452 -5.287,5.16325 -11.0988,12.98963 -1.4293,1.92479 -5.0995,7.54962 -8.156,12.49962 -5.7491,9.31063 -11.8985,16.5 -14.1133,16.5 -1.7848,0 -8.5227,5.94039 -13.1679,11.60918 -2.8303,3.45411 -3.3677,4.57157 -1.9395,4.03321 1.9477,-0.73422 1.9474,-0.71799 -0.024,1.15486 -18.845,17.89843 -29.6886,26.83286 -28.3334,23.34484 0.9694,-2.49497 39.8056,-41.45469 42.459,-42.594 1.7191,-0.73816 3.8865,-2.40095 4.8164,-3.6951 0.93,-1.29414 3.9109,-5.44889 6.6244,-9.23276 5.9446,-8.28959 6.9579,-13.53197 1.3764,-7.12023 -4.1483,4.76523 -9.498,13.11152 -8.8314,13.77811 0.7603,0.76032 -5.6105,5.72189 -7.3471,5.72189 -0.8702,0 -4.3805,2.925 -7.8006,6.5 -3.4201,3.575 -6.7501,6.5 -7.4001,6.5 -0.6499,0 -0.8606,-0.51953 -0.4682,-1.15451 0.456,-0.73775 0.2728,-0.88209 -0.5075,-0.39986 -0.6715,0.41505 -0.9845,0.99113 -0.6955,1.28017 0.2891,0.28903 -2.2768,3.28147 -5.7018,6.64986 -3.4251,3.36839 -8.8579,8.95723 -12.0731,12.41966 -8.104,8.7274 -9.3052,7.28077 -1.4969,-1.80274 8.3891,-9.75915 4.7362,-7.07834 -10.7193,7.86674 -10.7184,10.36448 -13.0195,12.13844 -15.7283,12.12537 -2.1595,-0.0104 -2.7397,-0.28993 -1.8163,-0.875 0.8698,-0.55113 0.986,-1.08887 0.3236,-1.4982 -1.4495,-0.89587 -10.8116,2.79376 -16.1803,6.37675 -4.945,3.30012 -7,3.76521 -7,1.58416 z m 60.2712,-42.3224 c 11.7569,-12.06171 5.8963,-8.12975 -8.4844,5.69228 -12.0954,11.62551 -24.7868,25.68099 -24.7868,27.45096 0,0.59903 13.149,-12.49941 33.2712,-33.14324 z m 12.0797,-6.23567 c 6.0011,-5.65594 17.3585,-18.78063 21.6461,-25.01433 3.0577,-4.44569 -9.2794,7.84983 -22.5762,22.5 -15.5285,17.10914 -15.277,17.78916 0.9301,2.51433 z m 17.0305,-11.47372 c 2.28,-3.4797 1.6271,-3.18886 -2.4352,1.08482 -2.3133,2.43362 -2.7531,3.26881 -1.3378,2.54061 1.1596,-0.59665 2.8575,-2.2281 3.773,-3.62543 z m -6.1433,-7.02942 c 1.0518,-2.00898 1.0505,-2.00901 -1.1852,-0.0224 -1.231,1.09385 -2.712,2.89385 -3.291,4 -1.0518,2.00898 -1.0505,2.00901 1.1852,0.0224 1.231,-1.09385 2.7119,-2.89385 3.291,-4 z m 14.3644,-5.73687 c 7.4747,-9.50179 18.3597,-25.14546 17.8506,-25.65453 -0.2492,-0.24922 -0.6033,-0.26562 -0.7868,-0.0365 -0.1835,0.22917 -2.922,3.5056 -6.0855,7.28095 -3.1635,3.77536 -7.206,9.17536 -8.9832,12 -9.132,14.51411 -9.6308,16.11641 -1.9951,6.41004 z m -2.4702,-7.24845 c 0.5295,-1.11423 -1.3037,0.44913 -4.0737,3.47413 -2.7701,3.025 -5.023,5.95 -5.0066,6.5 0.038,1.26134 7.7849,-7.24831 9.0803,-9.97413 z m 6.4831,-14.31791 c 4.4658,-7.67081 9.021,-13.20796 10.8657,-13.20796 0.7007,0 1.8342,-0.675 2.5189,-1.5 1.7891,-2.15578 0.5201,-1.85341 -3.8806,0.92463 -2.5641,1.61866 -7.3775,7.42626 -14.4801,17.47127 -5.8516,8.27565 -10.6393,15.30607 -10.6393,15.62317 0,1.61781 12.2521,-13.53401 15.6154,-19.31111 z m 14.996,3.54631 c 5.9477,-8.48794 7.596,-11.6185 5.404,-10.26381 -0.8878,0.54871 -1.0859,0.43258 -0.6008,-0.35226 0.398,-0.64395 1.0765,-0.95274 1.5077,-0.6862 0.4313,0.26654 2.2641,-1.57614 4.0729,-4.09485 2.3306,-3.24535 2.7375,-4.27967 1.3968,-3.55039 -3.1749,1.72688 -8.657,7.95542 -7.9743,9.06003 0.3533,0.57178 -2.5159,5.22316 -6.3762,10.3364 -3.8602,5.11325 -7.0238,9.70405 -7.0301,10.2018 -0.022,1.7464 4.1794,-2.91496 9.6,-10.65072 z m 13.9509,-5.00427 c 0.819,-1.5125 1.2459,-2.75 0.9487,-2.75 -0.749,0 -4.5062,6.27321 -4.492,7.5 0.013,1.11595 1.3044,-0.61533 3.5433,-4.75 z m -15.7393,-10.58264 2.677,-2.33265 -3.1712,2.09461 c -3.5586,2.35056 -8.3288,7.66829 -8.3288,9.28491 0,0.58343 1.3828,-0.6886 3.073,-2.82673 1.6901,-2.13812 4.2776,-4.93719 5.75,-6.22014 z m 30.1383,0.37932 c 1.8489,-2.22788 3.3009,-1.90504 2.0387,0.45332 -0.7257,1.35599 -0.737,2 -0.035,2 0.5693,0 1.0352,-0.47886 1.0352,-1.06414 0,-0.58527 2.3625,-3.26812 5.25,-5.96187 6.1846,-5.7697 5.3247,-6.3704 -2.1101,-1.47399 -2.923,1.925 -5.6874,3.5 -6.1432,3.5 -0.4558,0 -2.329,1.9047 -4.1627,4.23268 l -3.334,4.23267 3.0888,-2.18599 c 1.6988,-1.2023 3.6664,-2.88201 4.3724,-3.73268 z m -10.9663,-3.99096 c 0,-0.51935 -1.12,0.58057 -2.495,2.44428 -1.375,1.86371 -2.4838,3.63863 -2.464,3.94428 0.06,0.92923 4.9537,-5.37499 4.959,-6.38856 z m -13.8674,-2.30572 c 1.2438,-1.58606 1.2085,-1.62143 -0.3776,-0.37756 -1.6658,1.30637 -2.1955,2.12756 -1.3724,2.12756 0.2076,0 0.9951,-0.7875 1.75,-1.75 z m 13.1953,-7.02884 c 1.7474,-2.54674 4.9771,-6.64657 7.1771,-9.11073 l 4,-4.48029 -4.7565,3.23741 c -2.659,1.80984 -5.6144,4.91922 -6.7022,7.0514 -1.0701,2.09769 -3.1892,5.29183 -4.7091,7.09808 -2.5544,3.03572 -2.5903,3.19146 -0.4749,2.05932 1.2587,-0.67362 3.7182,-3.30846 5.4656,-5.85519 z m 3.17,5.79029 c 0.3504,-0.56686 -0.051,-0.7345 -0.941,-0.39301 -1.7324,0.66479 -2.0494,1.38156 -0.6109,1.38156 0.5175,0 1.2159,-0.44485 1.5519,-0.98855 z m 12.327,-18.20716 c 2.024,-3.13264 4.943,-7.63264 6.4865,-10 1.5436,-2.36736 6.8354,-9.70429 11.7596,-16.30429 11.1771,-14.98085 18.8115,-25.97602 19.6174,-28.25313 0.34,-0.96078 -2.0141,2.07813 -5.2313,6.75313 -3.2172,4.675 -10.6273,14.575 -16.467,22 -5.8397,7.425 -11.6678,15.23723 -12.9512,17.36051 -1.2835,2.12328 -5.4162,7.50411 -9.1838,11.9574 -3.7675,4.45329 -6.8501,8.47595 -6.8501,8.93926 0,1.95175 9.4333,-7.21148 12.8199,-12.45288 z m 6.1801,-1.88992 c 0,-1.75693 -1.6305,-0.15922 -6.9811,6.84069 l -5.1557,6.74494 6.0684,-6.27661 c 3.3376,-3.45214 6.0684,-6.7412 6.0684,-7.30902 z m -13.5517,-5.91437 c 4.1703,-10.09435 7.7675,-17.10299 10.3588,-20.18256 1.3039,-1.54959 1.9649,-2.81744 1.4689,-2.81744 -1.9906,0 -6.3866,5.92741 -8.7988,11.86372 -1.4052,3.45839 -2.967,7.04134 -3.4705,7.96213 -1.2609,2.30561 -5.0067,11.29521 -5.0067,12.01555 0,1.84267 3.1385,-3.25044 5.4483,-8.8414 z m 27.1918,-7.70714 c 6.3202,-6.06104 15.6913,-19.53399 23.6955,-34.06766 2.5064,-4.55115 7.2169,-11.30115 10.4675,-15 6.5613,-7.46587 15.2691,-21.2783 15.6601,-24.84024 0.139,-1.26635 1.0276,-3.48506 1.9747,-4.93047 0.947,-1.44541 1.541,-2.80894 1.3199,-3.03007 -0.2212,-0.22112 -1.4572,1.50542 -2.7467,3.83677 -1.2895,2.33134 -3.5679,5.65812 -5.063,7.39283 -1.4952,1.73472 -5.1972,7.35972 -8.2268,12.5 -3.0295,5.14029 -7.2685,11.37098 -9.42,13.84598 -5.516,6.34545 -14.5291,19.53183 -17.652,25.82547 -4.5049,9.07851 -9.555,15.89497 -15.7567,21.26757 -7.0249,6.08573 -10.5664,11.20716 -4.2817,6.19174 2.139,-1.70702 6.6521,-5.75338 10.0292,-8.99192 z m -13.5687,-11.73747 c 2.9721,-6.15039 3.0971,-7.77006 0.4286,-5.55539 -0.8516,0.70675 -1.3424,1.4909 -1.0908,1.74255 0.2517,0.25166 -1.7625,4.61246 -4.4758,9.69069 -2.7134,5.07822 -4.9219,9.64569 -4.9078,10.14994 0.04,1.44096 6.8693,-9.45469 10.0458,-16.02779 z m 17.4418,-0.14543 c 2.018,-3.60853 3.4555,-6.77458 3.1944,-7.03566 -0.3849,-0.38489 -8.7696,13.39876 -10.4178,17.1257 -1.3986,3.16279 4.1336,-4.56489 7.2234,-10.09004 z m -17.0132,4.59004 c 0.8532,-1.65 1.3264,-3 1.0514,-3 -0.275,0 -1.1982,1.35 -2.0514,3 -0.8533,1.65 -1.3264,3 -1.0514,3 0.275,0 1.1981,-1.35 2.0514,-3 z m 13.959,-12.5 c 2.8697,-3.85 6.7079,-9.25 8.5294,-12 1.8214,-2.75 4.246,-6.03748 5.3881,-7.30552 1.6585,-1.84151 1.7364,-2.17504 0.3869,-1.65718 -3.1708,1.21675 -22.9989,26.84625 -26.6619,34.4627 -1.6696,3.47157 5.7445,-4.62798 12.3575,-13.5 z m 147.541,9.12244 c 0,-0.20765 -0.7875,-0.99515 -1.75,-1.75 -1.586,-1.24387 -1.6214,-1.2085 -0.3775,0.37756 1.3063,1.66575 2.1275,2.19548 2.1275,1.37244 z m -154.0963,-8.56711 c 2.803,-4.36956 5.0963,-8.27875 5.0963,-8.68709 0,-2.11388 -6.53,5.86144 -8.6022,10.50619 -1.3188,2.95594 -2.3978,5.54344 -2.3978,5.75 0,1.25523 1.3693,-0.50029 5.9037,-7.5691 z m 24.9906,0.4066 c 1.3168,-1.92871 2.1861,-3.71485 1.9318,-3.96919 -0.2544,-0.25434 -1.8679,1.53151 -3.5857,3.96855 -1.7178,2.43704 -2.5871,4.22318 -1.9318,3.96919 0.6553,-0.25399 2.2688,-2.03984 3.5857,-3.96855 z m 14.4709,-21.46193 c 2.9446,-4.125 5.9246,-8.59042 6.6222,-9.92315 l 1.2683,-2.42314 -2.6872,2.11377 c -1.478,1.16257 -3.4946,3.15299 -4.4812,4.42314 -2.3966,3.085 -12.0873,18.7996 -12.0873,19.60081 0,1.06037 5.706,-5.86379 11.3652,-13.79143 z m -3.3577,-10.55696 c 2.8392,-4.08038 10.6474,-17.28773 16.1797,-27.36757 1.6375,-2.9835 4.0878,-6.88051 5.4451,-8.66004 1.4746,-1.93326 2.0606,-3.4872 1.456,-3.86087 -0.656,-0.40541 -0.6823,-1.49222 -0.075,-3.08996 0.5153,-1.35553 0.5916,-2.4646 0.1694,-2.4646 -0.4222,0 -2.5187,3.88789 -4.6588,8.63975 -4.4805,9.94832 -13.0691,24.00737 -18.0006,29.4659 -1.8647,2.06404 -3.8349,5.36263 -4.3782,7.3302 -0.5432,1.96758 -2.4535,5.48693 -4.245,7.82078 l -3.2573,4.24337 4.2708,-4 c 2.3489,-2.2 5.5411,-5.82563 7.0937,-8.05696 z m -4.6149,-9.78901 c 2.1409,-4.23622 3.6323,-7.9625 3.3141,-8.28061 -0.3181,-0.31811 -2.2434,2.72793 -4.2784,6.76899 -3.6647,7.27703 -6.4193,11.4973 -11.3694,17.41843 -1.4074,1.68346 -0.084,0.52612 2.9411,-2.57187 3.2556,-3.33418 7.0884,-8.77574 9.3926,-13.33494 z m -0.4023,10.09597 c 0.02,-1.55356 -1.0689,-0.6242 -3.984,3.40004 -4.1646,5.74904 -3.7857,7.11185 0.484,1.74069 1.9197,-2.4149 3.4947,-4.72823 3.5,-5.14073 z m 23.9807,-6.07723 c 2.1313,-3.64719 5.0379,-9.53761 6.459,-13.08982 2.1779,-5.44397 2.4,-6.86197 1.4137,-9.02657 -1.0963,-2.40621 -1.4673,-1.76433 -5.8876,10.1878 -2.5947,7.0157 -5.488,14.55582 -6.4296,16.75582 -2.3403,5.46793 -0.2361,3.18258 4.4445,-4.82723 z m -3.4309,-3.88953 c 3.7245,-7.14172 2.9217,-7.15395 -1.0516,-0.016 -1.9187,3.44697 -3.4816,6.59697 -3.4732,7 0.022,1.03659 1.664,-1.49831 4.5248,-6.98398 z m 8.4599,1.21676 c 0.5887,-1.1 0.8454,-2 0.5704,-2 -0.275,0 -0.9817,0.9 -1.5704,2 -0.5887,1.1 -0.8454,2 -0.5704,2 0.275,0 0.9817,-0.9 1.5704,-2 z m -16.3473,-12.80298 c 3.0316,-5.15112 5.2755,-9.60216 4.9865,-9.89119 -0.7263,-0.72628 -6.2432,7.26587 -11.013,15.95415 -5.9228,10.7885 -0.9421,5.77763 6.0265,-6.06296 z m -1.63,-9.28133 c 1.0831,-4.02222 7.7273,-13.43253 14.6834,-20.79643 2.3368,-2.47376 3.9883,-4.75009 3.67,-5.0585 -0.5761,-0.55825 -3.948,3.01501 -13.6255,14.43924 -4.7439,5.60019 -7.5032,10.50805 -9.2765,16.5 -0.737,2.49017 -0.7315,2.4925 1.3972,0.5912 1.1754,-1.04985 2.5936,-3.60382 3.1514,-5.67551 z m 9.144,-6.31573 c 1.5583,-2.14502 2.8333,-4.31699 2.8333,-4.82659 0,-0.50961 -1.6363,1.24541 -3.6362,3.90003 -6.4346,8.54101 -6.1083,8.01793 -3.9471,6.3266 1.0542,-0.825 3.1917,-3.25502 4.75,-5.40004 z m 41.2286,3.15004 c -3.0926,-6.06912 -6.6368,-11.84183 -7.0293,-11.44926 -0.2151,0.2151 1.4727,3.61043 3.7508,7.54518 4.2506,7.34186 6.2334,9.70301 3.2785,3.90408 z m -23.1949,-90.05342 c -0.2241,-9.87561 -0.6645,-13.56507 -1.75,-14.66087 -1.2678,-1.27997 -1.4504,0.42981 -1.4504,13.58334 0,8.27619 0.3075,15.35512 0.6833,15.73095 2.0456,2.04552 2.7969,-2.32853 2.5171,-14.65342 z m 25.0687,-10.35252 c -0.6771,-0.27392 -2.0271,-0.29059 -3,-0.0371 -0.973,0.25354 -0.4191,0.47766 1.2309,0.49804 1.65,0.0204 2.4461,-0.18706 1.7691,-0.46099 z m 11.4809,-1.03339 c -0.9625,-0.25152 -2.5375,-0.25152 -3.5,0 -0.9625,0.25153 -0.175,0.45733 1.75,0.45733 1.925,0 2.7125,-0.2058 1.75,-0.45733 z m -172.2863,321.74809 c 0.3199,-0.51768 4.959,-3.97841 10.309,-7.69051 5.35,-3.7121 12.8113,-9.81354 16.5807,-13.55876 6.5062,-6.46447 8.6466,-7.92945 8.6466,-5.91819 0,3.18657 -30.4108,28.09874 -34.309,28.10554 -0.995,0.002 -1.5473,-0.4204 -1.2273,-0.93808 z m -21.8997,-6.83376 c 2.2352,-2.04875 7.8602,-6.62118 12.5,-10.16095 4.6398,-3.53978 14.4021,-12.49865 21.6941,-19.9086 13.4785,-13.69673 19.0683,-17.60971 8.5988,-6.0194 -11.3871,12.60608 -11.657,13.20438 -1.5178,3.36395 5.6669,-5.5 11.059,-11.43734 11.9822,-13.19408 2.0425,-3.8863 25.1614,-29.65652 25.9226,-28.89536 0.542,0.54197 -3.783,5.67993 -18.1155,21.5206 -4.1956,4.63714 -7.6284,9.27673 -7.6284,10.31021 0,1.03348 -4.473,6.46446 -9.94,12.06884 -5.4669,5.60439 -11.2411,11.98979 -12.8315,14.18979 -3.3714,4.66372 -12.0338,12.02808 -13.0053,11.05653 -0.367,-0.36695 1.7952,-2.846 4.8048,-5.50898 3.0096,-2.66299 5.173,-5.14955 4.8076,-5.5257 -0.8405,-0.86522 -4.588,1.04394 -7.8356,3.9918 -4.6562,4.22645 -21.3665,16.48651 -22.4366,16.46135 -0.5849,-0.0138 0.7654,-1.70126 3.0006,-3.75 z m 131.4831,-3.19138 c -6.8209,-1.8286 -9.4269,-4.05382 -7.2716,-6.20913 0.9716,-0.97156 2.7217,-0.97485 8.3155,-0.0156 8.8846,1.52354 11.1233,2.67395 10.7197,5.50878 -0.4002,2.81078 -3.293,2.98684 -11.7636,0.71596 z m -29.5471,-9.36409 c -4.6925,-2.62325 -6.0691,-3.93462 -6.317,-6.01756 -0.3911,-3.28605 2.1547,-4.5613 4.6314,-2.31996 0.9569,0.86601 4.3406,2.76523 7.5193,4.22048 4.7177,2.15983 5.7231,3.04102 5.4728,4.79671 -0.4773,3.34947 -4.5356,3.10552 -11.3065,-0.67967 z m -67.5,-6.13225 c 0,-0.54785 4.2886,-5.26867 15.9318,-17.53728 3.0907,-3.25675 4.7182,-4.48034 3.9902,-3 -2.0973,4.2648 -19.922,22.64004 -19.922,20.53728 z m 50.5319,-9.78728 c -2.1287,-3.02859 -3.7754,-9.40756 -3.0325,-11.74801 0.6277,-1.97781 3.839,-3.52894 5.3598,-2.58898 0.4825,0.29815 1.1763,2.6897 1.5419,5.31455 0.3656,2.62484 1.294,5.60368 2.0631,6.61964 0.7691,1.01596 1.1562,2.47846 0.8601,3.25 -0.8358,2.17809 -5.034,1.65446 -6.7924,-0.8472 z m 2.5211,-20.18608 c -1.5535,-1.87195 -0.2643,-4.29324 4.5253,-8.49851 4.5865,-4.027 9.7564,-6.5347 11.8308,-5.73866 2.5368,0.97347 1.8547,3.35419 -1.6591,5.79023 -1.7875,1.23925 -5.3375,3.96989 -7.8888,6.0681 -5.2761,4.33905 -5.2026,4.31338 -6.8082,2.37884 z m 246.5294,-3.8382 c -2.5779,-1.77415 -8.2209,-5.47572 -12.5399,-8.22572 -4.319,-2.75 -10.1454,-6.68675 -12.9476,-8.74834 -2.8022,-2.06158 -5.0949,-3.55226 -5.0949,-3.31262 0,0.6932 12.1927,10.73571 17.4607,14.38156 3.3909,2.34671 4.4861,3.63263 3.7342,4.38451 -1.2885,1.28855 -8.4567,-3.63934 -29.1949,-20.07065 -24.8034,-19.65225 -49.38,-41.87544 -60.1546,-54.39421 -6.2703,-7.28533 -8.1968,-11.90778 -2.184,-5.24025 8.6754,9.6201 24.5811,25.3279 33.3386,32.92391 10.0439,8.7117 20.9137,16.99573 21.5137,16.39577 0.197,-0.19703 -1.638,-3.46072 -4.0777,-7.25266 -2.4398,-3.79193 -4.436,-7.58576 -4.436,-8.43072 0,-1.87847 0.3334,-1.54945 7.2272,7.13222 5.9921,7.54623 20.9839,20.64586 27.2159,23.7808 2.2313,1.12245 5.1819,2.86128 6.5569,3.86408 1.375,1.00279 6.4375,4.43866 11.25,7.63527 4.8125,3.1966 8.75,6.1543 8.75,6.57265 0,2.01124 -2.145,1.54476 -6.4176,-1.3956 z m -57.9022,-6.6828 c -12.3557,-8.84131 -21.2594,-16.93006 -28.3978,-25.7985 -6.6847,-8.3049 -14.8727,-20.24442 -13.8833,-20.24442 0.2533,0 3.7547,4.38445 7.7808,9.74322 10.4707,13.93665 18.5446,22.12909 31.4807,31.94292 6.2367,4.73141 11.3394,8.7626 11.3394,8.95821 0,1.00599 -2.129,-0.17148 -8.3198,-4.60143 z m 86.6283,-1.87425 c -10.6968,-7.9312 -29.3085,-23.97639 -29.3085,-25.26694 0,-0.57101 -5.625,-6.55808 -12.5,-13.30461 -7.4432,-7.30419 -12.4949,-13.04124 -12.4874,-14.18176 0.012,-1.86494 8.4496,6.31356 25.9874,25.19006 6.8497,7.37245 24.6113,22.80726 36.9167,32.08058 0.2292,0.1727 0.1763,0.55434 -0.1174,0.84809 -0.2938,0.29375 -4.1146,-2.12069 -8.4908,-5.36542 z m -290.3085,0.0216 c 0,-0.53699 0.7126,-1.24979 1.5836,-1.58401 0.9739,-0.37373 1.431,-0.15024 1.1875,0.58051 -0.4983,1.49484 -2.7711,2.31789 -2.7711,1.0035 z m 290.996,-7.87944 c -5.2228,-3.67901 -15.2249,-12.34151 -22.227,-19.25 -7.002,-6.90848 -15.2145,-14.88263 -18.25,-17.72032 -3.0354,-2.83769 -5.519,-5.92945 -5.519,-6.87058 0,-1.22012 1.1203,-0.5568 3.9039,2.31155 2.1472,2.21247 4.7371,4.28712 5.7554,4.61031 1.0183,0.3232 6.347,5.40186 11.8417,11.28593 9.3463,10.00877 25.857,24.20676 33.249,28.59184 3.312,1.96467 4.2567,3.73039 1.996,3.73039 -0.6897,0 -5.5272,-3.0101 -10.75,-6.68912 z m -178.996,4.68912 c 0,-0.55 0.45,-1 1,-1 0.55,0 1,0.45 1,1 0,0.55 -0.45,1 -1,1 -0.55,0 -1,-0.45 -1,-1 z m 97.439,-7.36997 c -17.946,-15.11303 -33.439,-29.98538 -33.439,-32.09942 0,-0.38795 4.6125,3.78825 10.25,9.28043 5.6375,5.49218 15.425,14.37551 21.75,19.74073 10.228,8.67592 13.0788,11.44823 11.7723,11.44823 -0.2169,0 -4.8669,-3.76649 -10.3333,-8.36997 z m -169.1071,4.79243 c -0.8929,-2.32677 1.3217,-3.92087 9.4777,-6.82221 9.4559,-3.36375 12.1904,-3.40474 12.1904,-0.18271 0,2.16042 -0.984,2.74536 -9.2525,5.5 -10.6251,3.53977 -11.5899,3.65671 -12.4156,1.50492 z m 30.7214,-9.85817 c -2.0456,-2.46484 0.01,-3.97199 9.5639,-7.01564 7.4436,-2.37109 8.8088,-2.55121 10.036,-1.32408 2.4737,2.47371 0.4443,4.55168 -6.482,6.63725 -11.0111,3.31555 -11.7044,3.40553 -13.1179,1.70247 z m -162.3521,-5.19639 c -0.3856,-0.38568 -0.7012,-3.07614 -0.7012,-5.9788 0,-6.96695 -2.8111,-10.46274 -9.087,-11.30021 -5.2449,-0.6999 -6.215,-3.39062 -1.413,-3.91897 5.884,-0.64738 9.4819,-6.61719 9.4944,-15.75325 0,-2.24584 0.3017,-4.37943 0.6636,-4.74133 1.4976,-1.4976 3.342,1.83908 3.342,6.04598 0,4.64784 2.118,10.30176 4.6445,12.39862 0.8032,0.66656 3.1242,1.4824 5.1579,1.81296 4.2836,0.69628 5.1275,3.40698 1.1976,3.84705 -5.3088,0.59449 -6.5798,1.23871 -8.3473,4.23087 -1.3039,2.20734 -1.7306,4.57466 -1.49,8.26636 0.2643,4.05316 0,5.24018 -1.2115,5.48258 -0.8518,0.17016 -1.8643,-0.006 -2.25,-0.39186 z m 117.8447,-1.29362 c -0.3147,-0.50915 1.2812,-2.19665 3.5463,-3.75 10.6172,-7.28086 21.9069,-16.1935 25.1116,-19.82428 4.8011,-5.43935 17.0658,-27.63043 15.9098,-28.78637 -0.5433,-0.5433 -2.6272,1.63961 -5.1929,5.43945 -7.2869,10.79237 -13.9091,19.24305 -16.9806,21.6694 -4.0406,3.19182 -3.683,1.69042 0.8951,-3.75812 6.211,-7.39195 19.1648,-26.01263 19.1648,-27.54884 0,-2.88063 3.0254,-3.22223 9.3252,-1.05291 5.3127,1.82943 6.1748,2.46912 6.1748,4.58184 0,2.34188 -0.2633,2.44675 -5.6883,2.26555 -4.644,-0.15511 -5.7456,0.12029 -6,1.5 -0.7882,4.27376 -12.7914,23.96995 -18.2144,29.88811 -4.7539,5.18811 -24.8578,20.30189 -27.005,20.30189 -0.2608,0 -0.7317,-0.41657 -1.0464,-0.92572 z m 71.79,-3.6415 c -0.841,-2.19162 0.5548,-3.29354 8.3237,-6.5712 7.8121,-3.29585 9.8729,-3.52241 10.7702,-1.18404 0.8421,2.19449 -0.6505,3.42745 -8.0548,6.65365 -6.9788,3.0408 -10.1727,3.35952 -11.0391,1.10159 z m 137.6808,-5.00867 c -2.8803,-3.04548 -4.9682,-5.8059 -4.6398,-6.13427 0.6431,-0.64311 10.0098,7.41385 10.9608,9.42813 0.3162,0.66989 0.2017,1.44869 -0.2546,1.73067 -0.4562,0.28198 -3.1861,-1.97906 -6.0664,-5.02453 z m -9.7004,-2.91513 c -2.5347,-1.77542 -14.4953,-16.01499 -16.2485,-19.34463 -2.1811,-4.14226 -0.3895,-3.41262 3.7468,1.52592 2.2156,2.64535 6.7848,8.07223 10.1537,12.05973 5.9705,7.06669 6.6722,8.78775 2.348,5.75898 z m -193.3163,0.10971 c 0,-0.20972 1.6875,-1.63432 3.75,-3.16578 l 3.75,-2.78448 -2.9371,3.16579 c -2.5651,2.76484 -4.5629,3.98397 -4.5629,2.78447 z m 22.6507,-2.30132 c -0.343,-0.34295 2.6888,-4.09054 6.7372,-8.32798 4.0484,-4.23744 8.5851,-9.79355 10.0815,-12.34691 2.6004,-4.43734 4.5306,-5.93292 4.5306,-3.51051 0,4.65735 -19.1657,26.36903 -21.3493,24.1854 z m -176.4456,-2.5702 c -1.1345,-1.36707 0.6688,-4.74717 2.5327,-4.74717 1.7123,0 3.3329,2.65205 2.6725,4.37325 -0.7403,1.9292 -3.7358,2.14438 -5.2052,0.37392 z m 242.4107,-0.30617 c -0.3793,-0.98833 0.6396,-2.72704 2.7835,-4.75 4.4956,-4.24192 5.7133,-6.87836 4.9469,-10.71036 -0.591,-2.95472 0.5263,-4.91329 2.8324,-4.96533 3.5536,-0.0802 5.0443,8.7193 2.3574,13.91523 -3.2294,6.24496 -11.4354,10.37992 -12.9202,6.51046 z m 113.5668,-4.691 c -4.4315,-6.46424 -8.3367,-14.69156 -7.5658,-15.93898 0.8395,-1.35833 3.3832,1.78221 3.3832,4.177 0,0.88317 2.025,4.68889 4.5,8.45714 4.8984,7.45788 4.9439,7.55484 3.5481,7.55484 -0.5236,0 -2.2631,-1.9125 -3.8655,-4.25 z m -155.3701,2.56689 c 0.7219,-0.28887 1.5844,-0.25335 1.9167,0.0789 0.3323,0.33229 -0.2584,0.56864 -1.3125,0.52522 -1.165,-0.048 -1.4019,-0.28494 -0.6042,-0.60416 z m 86.0378,-8.5143 c -11.675,-16.80769 -21.3568,-33.82167 -20.5607,-36.1316 0.222,-0.64404 2.034,2.05321 4.0267,5.9939 4.2848,8.47333 13.4925,23.85972 18.3616,30.68307 1.9028,2.66637 3.255,5.05254 3.0049,5.30258 -0.25,0.25005 -2.4247,-2.38153 -4.8325,-5.84795 z m 39.6497,-1.80259 c -0.3399,-0.55 0.083,-1 0.941,-1 0.8575,0 1.559,0.45 1.559,1 0,0.55 -0.4234,1 -0.9409,1 -0.5176,0 -1.2191,-0.45 -1.5591,-1 z m 4.6451,-6.44014 c -2.8298,-2.99208 -5.1451,-6.14208 -5.1451,-7 0,-0.85792 -0.4765,-1.55986 -1.059,-1.55986 -0.5824,0 -0.8098,-0.40316 -0.5053,-0.89592 0.3046,-0.49276 -0.1161,-2.18026 -0.9348,-3.75 -1.7318,-3.32048 -1.8646,-4.35408 -0.5595,-4.35408 0.5177,0 2.3215,2.5875 4.0083,5.75 1.6868,3.1625 4.8632,8.12163 7.0587,11.02029 2.1954,2.89865 3.9916,5.48615 3.9916,5.75 0,1.51706 -2.3091,-0.15387 -6.8549,-4.96043 z m -164.107,3.05616 c -0.063,-1.45255 16.1363,-25.61602 17.1727,-25.61602 1.1374,0 1.2953,-0.38351 -3.6643,8.9016 -3.5783,6.69912 -13.4154,18.87089 -13.5084,16.71442 z m 172.1358,-3.37181 c -1.2155,-1.70709 -1.8011,-3.35653 -1.3014,-3.66542 1.1104,-0.68626 4.3995,4.10538 3.8825,5.65619 -0.204,0.61217 -1.3655,-0.28368 -2.5811,-1.99077 z m -100.1663,-5.61854 c -5.8745,-3.4111 -7.0807,-5.49018 -4.451,-7.6726 1.414,-1.17355 2.3988,-0.96691 7.0851,1.48669 6.3935,3.3474 8.0879,5.68786 5.7849,7.99079 -1.9791,1.97909 -1.8573,2.00518 -8.419,-1.80488 z m 136.5399,-7.87567 c 1.6454,-11.75065 -0.3793,-17.9836 -8.1343,-25.04127 l -4.3997,-4.00405 0.6189,-6.65905 c 1.0932,-11.76179 -3.3998,-16.08873 -18.1324,-17.46245 -7.7544,-0.72305 -9.4859,-2.00037 -9.5219,-7.02431 -0.051,-7.13255 -7.5421,-17.48834 -15.5392,-21.48229 -6.3048,-3.14877 -12.7706,-3.70347 -19.6973,-1.68983 -7.4826,2.17525 -8.3648,2.07968 -12.732,-1.37916 -11.6591,-9.23419 -23.1371,-10.26355 -37.6879,-3.3799 -5.1636,2.44279 -8.3217,2.60238 -8.3217,0.42054 0,-0.558 2.3625,-2.21485 5.25,-3.6819 12.2723,-6.23514 24.5969,-7.12517 34.25,-2.47337 3.3,1.59026 7.4822,4.01494 9.2938,5.38817 3.1618,2.39672 3.4787,2.44112 7.9089,1.10783 6.129,-1.84456 14.8563,-1.75858 20.6134,0.20307 5.2198,1.77857 13.4372,8.65457 16.7513,14.01695 1.1972,1.93706 2.9332,6.07048 3.8579,9.18538 1.8493,6.22944 1.3785,5.97484 14.1933,7.67574 9.5416,1.26647 15.9058,10.21323 14.4014,20.24552 -0.6267,4.17921 -0.4522,4.57811 4.2584,9.73228 5.6668,6.20031 7.7655,11.98929 7.6356,21.06146 -0.094,6.55973 -1.6088,10.49064 -4.043,10.49064 -1.307,0 -1.4399,-0.84776 -0.8235,-5.25 z m -156.7929,2.32092 c -5.3558,-0.74697 -7.1151,-2.01079 -6.5633,-4.7147 0.3125,-1.53092 1.2267,-1.826 5.2167,-1.68378 7.0047,0.24967 9.592,1.09844 9.592,3.14661 0,1.74808 -1.8675,4.3103 -2.95,4.04734 -0.3025,-0.0735 -2.6854,-0.43145 -5.2954,-0.79547 z m 97.1497,-3.68626 c -1.1598,-1.39754 -1.0864,-1.56608 0.5447,-1.25 1.0369,0.20094 2.0726,0.92784 2.3015,1.61534 0.594,1.78389 -1.26,1.54592 -2.8462,-0.36534 z m 14.1795,-2.40423 c -4.0521,-5.56459 -6.3999,-9.98043 -5.3063,-9.98043 1.3197,0 9.3996,11.96884 8.9634,13.27749 -0.217,0.65085 -1.8627,-0.83283 -3.6571,-3.29706 z m -267.7841,1.69416 c -0.4398,-0.72898 -1.5872,-1.61485 -2.5497,-1.96862 -2.1527,-0.7912 -2.3121,-2.70597 -0.2253,-2.70597 0.8387,0 1.9628,-1.15208 2.4982,-2.56017 0.9658,-2.54033 2.9771,-2.5386 2.9771,0.003 0,0.72839 1.0125,1.61906 2.25,1.97927 l 2.25,0.65493 -2.25,1.58368 c -1.2375,0.87102 -2.25,2.20379 -2.25,2.9617 0,1.75413 -1.6543,1.78637 -2.7003,0.0526 z m 254.3775,-6.84941 c -1.8986,-14.34444 -1.9254,-15.07447 -0.5375,-14.61849 1.7543,0.57637 3.6356,16.41806 2.1287,17.92498 -0.6916,0.69159 -1.2025,-0.37011 -1.5912,-3.30649 z m 91.3228,0.2334 c -15.1829,-0.89273 -11.1226,-2.55858 6.2363,-2.55858 13.7158,0 15.27,0.17465 15.5734,1.75 0.3702,1.92264 -1.6125,1.99615 -21.8097,0.80858 z m -163.9108,-18.75713 c -3.3965,-4.11024 -6.5748,-10.16463 -7.6389,-14.55145 -1.1032,-4.54798 1.2234,-3.15591 2.8874,1.72758 0.8391,2.46266 3.1876,6.98144 5.2189,10.04173 4.3353,6.53138 4.0473,8.24565 -0.4674,2.78214 z m -158.0892,-5.3327 c -6.875,-2.08707 -17.45,-5.29916 -23.5,-7.13797 -7.5984,-2.30942 -11,-3.80522 -11,-4.83702 0,-0.86673 0.8395,-1.44373 2,-1.37464 2.8098,0.16727 45.8119,13.35515 46.8629,14.37189 0.9084,0.87885 0.011,3.09322 -1.1719,2.89072 -0.3801,-0.0651 -6.316,-1.82591 -13.191,-3.91298 z m 97.0398,2.57929 c -1.5099,-1.81938 -0.6304,-4.6926 2.6182,-8.55339 2.9505,-3.50647 4.3758,-3.71972 6.8188,-1.02022 1.6881,1.86527 1.6929,2.11764 0.088,4.56686 -4.0255,6.14373 -7.1977,7.81113 -9.5251,5.00675 z m -169.3731,-1.21466 c -0.3667,-0.36666 -0.6667,-1.48129 -0.6667,-2.47694 0,-0.99566 -1.125,-2.54741 -2.5,-3.44835 -3.0128,-1.97405 -3.2268,-3.98472 -0.5,-4.69779 1.4563,-0.38083 2,-1.36401 2,-3.61663 0,-2.08322 0.4899,-3.09362 1.5,-3.09362 0.825,0 1.5,0.47158 1.5,1.04797 0,1.3711 5.1404,5.87974 6.75,5.92043 2.2118,0.0559 1.3314,2.67349 -1.303,3.87378 -1.4041,0.63976 -3.0231,2.51199 -3.5978,4.16051 -1.0374,2.97604 -1.9032,3.61002 -3.1825,2.33064 z m 377.8888,-0.24352 c -1.0097,-1.63385 0.2843,-3.08898 2.7536,-3.09631 1.205,-0.004 12.9909,-1.77967 26.1909,-3.94687 22.3809,-3.67453 28.0026,-3.94265 24.95,-1.18995 -0.5225,0.47117 -11.3,2.51739 -23.95,4.54716 -12.65,2.02976 -24.4109,3.93467 -26.1354,4.23313 -1.7734,0.3069 -3.4281,0.0692 -3.8091,-0.54716 z m -86.5555,-20.14883 c 0,-0.58246 0.45,-0.7809 1,-0.44098 0.55,0.33992 1,0.81648 1,1.05902 0,0.24254 -0.45,0.44098 -1,0.44098 -0.55,0 -1,-0.47656 -1,-1.05902 z m -193.3352,-2.9152 c -1.7809,-1.80043 -1.7702,-1.92038 0.3611,-4.05168 2.1912,-2.19121 2.2009,-2.1917 4.1824,-0.2102 1.9252,1.92516 1.9303,2.05134 0.1667,4.11111 -2.1672,2.53106 -2.35,2.53691 -4.7102,0.15077 z m 282.7568,-0.15266 c -0.8639,-1.39788 -0.028,-2.03307 5.3744,-4.08494 5.1218,-1.94523 8.204,-2.28734 8.204,-0.91062 0,1.52277 -2.3328,2.8691 -7.7282,4.46006 -3.3923,1.0003 -5.4467,1.18835 -5.8502,0.5355 z m -104.9216,-0.87312 c -0.3399,-0.55 0.083,-1 0.941,-1 0.8575,0 1.559,0.45 1.559,1 0,0.55 -0.4234,1 -0.9409,1 -0.5176,0 -1.2191,-0.45 -1.5591,-1 z m -199.8655,-14.07758 c -0.349,-1.74483 -0.6345,-4.27579 -0.6345,-5.62434 0,-1.37669 -1.2819,-3.73378 -2.9231,-5.375 -2.3681,-2.36811 -3.7808,-2.92308 -7.441,-2.92308 -4.6605,0 -6.9371,-1.56172 -4.514,-3.09649 0.7579,-0.48009 2.8155,-0.87978 4.5723,-0.8882 1.8796,-0.009 4.3018,-0.96794 5.8852,-2.32995 2.2272,-1.91573 2.7969,-3.42372 3.3058,-8.75 0.4567,-4.78039 1.0005,-6.43536 2.1148,-6.43536 1.0616,0 1.6572,1.46132 2.038,5 0.8932,8.30239 4.4812,12.5 10.6845,12.5 2.2467,0 3.2775,0.47178 3.2775,1.5 0,1.05376 -1.0641,1.5 -3.5769,1.5 -2.6432,0 -4.3622,0.78527 -6.5853,3.00831 -2.7551,2.7551 -2.9801,3.48914 -2.673,8.72101 0.2718,4.63188 0.03,5.77446 -1.2803,6.03912 -1.1247,0.22724 -1.8083,-0.63738 -2.25,-2.84602 z m 279.8117,1.99045 c -0.3696,-0.59793 -0.2836,-1.43501 0.191,-1.86019 0.4745,-0.42518 13.8356,-6.96566 29.6913,-14.53439 19.7503,-9.42783 29.1523,-13.43749 29.8569,-12.73291 1.4884,1.48836 -1.033,2.91394 -25.8137,14.59514 -12.0294,5.67044 -24.2192,11.50456 -27.0884,12.96469 -5.958,3.03202 -5.9353,3.0268 -6.8371,1.56766 z m -289.8934,-6.82746 c -0.322,-0.52097 -0.1592,-1.21065 0.3618,-1.53262 0.521,-0.32198 1.2106,-0.15917 1.5326,0.3618 0.322,0.52097 0.1592,1.21065 -0.3618,1.53262 -0.521,0.32198 -1.2106,0.15917 -1.5326,-0.3618 z m 279.7945,-11.62295 c -0.3513,-0.91537 -0.2356,-1.95717 0.257,-2.3151 7.5634,-5.49526 40.0965,-26.45104 41.1937,-26.5344 4.704,-0.35739 0.1277,3.60492 -18.0006,15.5854 -11.1635,7.3777 -20.863,13.75474 -21.5544,14.1712 -0.7642,0.4603 -1.5075,0.10461 -1.8957,-0.9071 z m -150.3473,-1.46246 c 0,-0.55 0.4766,-1 1.0591,-1 0.5824,0 0.7809,0.45 0.4409,1 -0.3399,0.55 -0.8164,1 -1.059,1 -0.2425,0 -0.441,-0.45 -0.441,-1 z m 6.6667,-0.66667 c -0.9557,-0.95569 -0.8221,-2.33333 0.2263,-2.33333 0.4912,0 1.1521,0.675 1.4687,1.5 0.5849,1.52428 -0.4803,2.04799 -1.695,0.83333 z m -139.6667,-6.33333 c 0,-0.55 0.45,-1 1,-1 0.55,0 1,0.45 1,1 0,0.55 -0.45,1 -1,1 -0.55,0 -1,-0.45 -1,-1 z m 219,-2.59373 c 0,-2.20946 6.2194,-12.40627 7.567,-12.40627 3.0423,0 1.8525,3.95239 -3.2359,10.75 -2.6408,3.52779 -4.3311,4.17418 -4.3311,1.65627 z m -20.4464,-6.31955 c -0.3104,-0.50231 -0.853,-4.32731 -1.2057,-8.5 -0.5477,-6.47863 -0.4137,-7.58672 0.9175,-7.58672 1.5564,0 1.7825,0.83375 3.3214,12.25 0.5263,3.9042 0.3635,4.75 -0.9142,4.75 -0.855,0 -1.8085,-0.41098 -2.119,-0.91328 z m -143.0891,-5.12387 c -2.1805,-2.23345 -6.9932,-6.62628 -10.695,-9.76184 -6.0779,-5.1482 -8.5761,-9.20101 -5.6716,-9.20101 2.0425,0 23.0089,19.20721 22.7006,20.7959 -0.5421,2.79359 -2.3192,2.27931 -6.334,-1.83305 z m 204.5355,-0.32469 c 0,-1.37621 18.2063,-22.45352 20.6821,-23.94352 0.8502,-0.51166 1.5569,-0.23549 1.9379,0.75728 0.3751,0.97767 -0.8239,3.15091 -3.2029,5.80536 -14.1144,15.74821 -17.0135,18.74272 -18.1456,18.74272 -0.6993,0 -1.2715,-0.61283 -1.2715,-1.36184 z m -25.7784,-7.89917 c -1.3693,-1.68817 33.0562,-71.73899 35.2552,-71.73899 0.8378,0 1.5232,0.6219 1.5232,1.38199 0,1.84266 -33.4681,70.17124 -34.7625,70.97122 -0.5559,0.34362 -1.4631,0.0672 -2.0159,-0.61422 z m -165.8041,-15.96985 c -7.1046,-8.35875 -19.78,-23.21055 -28.1675,-33.004 -8.3875,-9.79345 -15.25,-18.24701 -15.25,-18.7857 0,-0.53869 0.8601,-0.97944 1.9113,-0.97944 1.8928,0 6.1524,4.6531 29.0887,31.77589 5.775,6.82909 14.0077,16.53574 18.2949,21.57032 9.4719,11.12301 10.0757,12.10136 8.3516,13.53222 -1.0198,0.8463 -4.1851,-2.29243 -14.229,-14.10929 z m 107.5825,9.73086 c 0,-0.825 0.45,-1.5 1,-1.5 0.55,0 1,0.675 1,1.5 0,0.825 -0.45,1.5 -1,1.5 -0.55,0 -1,-0.675 -1,-1.5 z m 35,-10.94098 c 0,-2.78811 1.6921,-4.267 3.1798,-2.77925 0.674,0.67401 0.6337,1.70027 -0.1223,3.11287 -1.5166,2.83371 -3.0575,2.66557 -3.0575,-0.33362 z m -113.5,-5.55902 c -0.3399,-0.55 -0.1415,-1 0.441,-1 0.5824,0 1.059,0.45 1.059,1 0,0.55 -0.1984,1 -0.441,1 -0.2425,0 -0.7191,-0.45 -1.059,-1 z m -10.8605,-30.69385 c -1.1952,-1.19516 -0.6457,-3.30615 0.8605,-3.30615 0.825,0 1.5,0.64844 1.5,1.44098 0,1.67065 -1.4273,2.79841 -2.3605,1.86517 z m 143.3605,-9.30615 c 0,-0.55 0.675,-1 1.5,-1 0.825,0 1.5,0.45 1.5,1 0,0.55 -0.675,1 -1.5,1 -0.825,0 -1.5,-0.45 -1.5,-1 z"
       id="path1" />
  </g>
</svg>
